<?xml version="1.0" encoding="utf-8"?>
<svg xmlns="http://www.w3.org/2000/svg">
  <defs>
    <symbol id="moon-outline" viewBox="0 0 512 512">
      <path d="M160 136c0-30.62 4.51-61.61 16-88C99.57 81.27 48 159.32 48 248c0 119.29 96.71 216 216 216 88.68 0 166.73-51.57 200-128-26.39 11.49-57.38 16-88 16-119.29 0-216-96.71-216-216z" fill="none" stroke="currentColor" stroke-linecap="round" stroke-linejoin="round" stroke-width="32"/>
    </symbol>

    <symbol id="sunny-outline" viewBox="0 0 512 512">
      <path fill="none" stroke="currentColor" stroke-linecap="round" stroke-miterlimit="10" stroke-width="32" d="M256 48v48M256 416v48M403.08 108.92l-33.94 33.94M142.86 369.14l-33.94 33.94M464 256h-48M96 256H48M403.08 403.08l-33.94-33.94M142.86 142.86l-33.94-33.94"/><circle cx="256" cy="256" r="80" fill="none" stroke="currentColor" stroke-linecap="round" stroke-miterlimit="10" stroke-width="32"/>
    </symbol>

    <symbol id="search-sharp" viewBox="0 0 512 512">
      <path fill="currentColor" d="M464 428L339.92 303.9a160.48 160.48 0 0030.72-94.58C370.64 120.37 298.27 48 209.32 48S48 120.37 48 209.32s72.37 161.32 161.32 161.32a160.48 160.48 0 0094.58-30.72L428 464zM209.32 319.69a110.38 110.38 0 11110.37-110.37 110.5 110.5 0 01-110.37 110.37z"/>
    </symbol>

    <symbol id="chevron-down-outline" viewBox="0 0 512 512">
      <path fill="none" stroke="currentColor" stroke-linecap="round" stroke-linejoin="round" stroke-width="48" d="M112 184l144 144 144-144"/>
    </symbol>

    <symbol id="chevron-up-outline" viewBox="0 0 512 512">
      <path fill="none" stroke="currentColor" stroke-linecap="round" stroke-linejoin="round" stroke-width="48" d="M112 328l144-144 144 144"/>
    </symbol>
  </defs>
</svg>
