<?xml version="1.0" encoding="utf-8"?>
<svg xmlns="http://www.w3.org/2000/svg">
  <defs>
    <symbol id="moon-outline" viewBox="0 0 512 512">
      <path d="M160 136c0-30.62 4.51-61.61 16-88C99.57 81.27 48 159.32 48 248c0 119.29 96.71 216 216 216 88.68 0 166.73-51.57 200-128-26.39 11.49-57.38 16-88 16-119.29 0-216-96.71-216-216z" fill="none" stroke="currentColor" stroke-linecap="round" stroke-linejoin="round" stroke-width="32"/>
    </symbol>

    <symbol id="sunny-outline" viewBox="0 0 512 512">
      <path fill="none" stroke="currentColor" stroke-linecap="round" stroke-miterlimit="10" stroke-width="32" d="M256 48v48M256 416v48M403.08 108.92l-33.94 33.94M142.86 369.14l-33.94 33.94M464 256h-48M96 256H48M403.08 403.08l-33.94-33.94M142.86 142.86l-33.94-33.94"/><circle cx="256" cy="256" r="80" fill="none" stroke="currentColor" stroke-linecap="round" stroke-miterlimit="10" stroke-width="32"/>
    </symbol>

    <symbol id="search-sharp" viewBox="0 0 512 512">
      <path fill="currentColor" d="M464 428L339.92 303.9a160.48 160.48 0 0030.72-94.58C370.64 120.37 298.27 48 209.32 48S48 120.37 48 209.32s72.37 161.32 161.32 161.32a160.48 160.48 0 0094.58-30.72L428 464zM209.32 319.69a110.38 110.38 0 11110.37-110.37 110.5 110.5 0 01-110.37 110.37z"/>
    </symbol>

    <symbol id="chevron-down-outline" viewBox="0 0 512 512">
      <path fill="none" stroke="currentColor" stroke-linecap="round" stroke-linejoin="round" stroke-width="48" d="M112 184l144 144 144-144"/>
    </symbol>

    <symbol id="chevron-up-outline" viewBox="0 0 512 512">
      <path fill="none" stroke="currentColor" stroke-linecap="round" stroke-linejoin="round" stroke-width="48" d="M112 328l144-144 144 144"/>
    </symbol>

    <symbol id="close-outline" viewBox="0 0 512 512">
      <path fill="none" stroke="currentColor" stroke-linecap="round" stroke-linejoin="round" stroke-width="32" d="M368 368L144 144M368 144L144 368"/>
    </symbol>

    <symbol id="3-dots-bounce" viewBox="0 0 24 24">
      <style>.spinner_qM83{animation:spinner_8HQG 1.05s infinite}.spinner_oXPr{animation-delay:.1s}.spinner_ZTLf{animation-delay:.2s}@keyframes spinner_8HQG{0%,57.14%{animation-timing-function:cubic-bezier(0.33,.66,.66,1);transform:translate(0)}28.57%{animation-timing-function:cubic-bezier(0.33,0,.66,.33);transform:translateY(-6px)}100%{transform:translate(0)}}</style><circle class="spinner_qM83" cx="4" cy="12" r="3"/><circle class="spinner_qM83 spinner_oXPr" cx="12" cy="12" r="3"/><circle class="spinner_qM83 spinner_ZTLf" cx="20" cy="12" r="3"/>
    </symbol>

    <symbol id="earth" viewBox="0 0 576 579">
      <path fill="currentColor" d="M131.926 57.6603C132.531 57.7722 133.145 57.8829 133.736 58.0551C135.202 58.4821 136.625 59.5418 137.348 60.9007C138.097 62.3063 137.867 63.6121 137.404 65.0606C134.741 68.0009 131.5 70.0761 128.326 72.4038Q123.474 75.9481 118.786 79.7062C113.879 83.653 109.501 88.2003 104.59 92.1026C103.241 93.1742 101.95 94.1048 100.372 94.8131C99.6043 94.8056 98.8537 94.7936 98.1145 94.5636C96.6642 94.1124 95.6556 93.2 94.9805 91.8504C94.4887 90.8672 94.1755 89.6472 94.5677 88.5764C96.6609 82.8612 125.48 60.3528 131.926 57.6603Z"/>
      <path fill="currentColor" d="M419.734 522.782C420.126 522.765 420.514 522.745 420.906 522.78C422.429 522.917 423.711 523.668 424.626 524.887C425.483 526.027 425.886 527.4 425.602 528.813C425.212 530.752 423.554 531.877 422.012 532.901C414.497 537.891 402.927 542.765 394.497 546.242Q392.125 547.214 389.735 548.144Q387.346 549.073 384.94 549.959Q382.534 550.844 380.112 551.686Q377.691 552.528 375.254 553.326Q372.818 554.124 370.367 554.877Q367.916 555.63 365.452 556.339Q362.988 557.048 360.512 557.712Q358.036 558.376 355.548 558.995Q353.06 559.614 350.561 560.187Q348.062 560.761 345.553 561.289Q343.044 561.817 340.526 562.3Q338.008 562.782 335.482 563.219Q332.955 563.656 330.422 564.047Q327.888 564.437 325.347 564.782Q322.806 565.127 320.26 565.425Q317.714 565.724 315.162 565.976Q312.611 566.228 310.055 566.434Q307.5 566.64 304.941 566.8Q302.382 566.959 299.82 567.072Q297.259 567.185 294.696 567.252Q292.133 567.318 289.569 567.338Q287.005 567.358 284.442 567.331Q281.878 567.305 279.315 567.231Q276.752 567.158 274.191 567.039Q271.63 566.919 269.072 566.753Q266.513 566.587 263.958 566.374Q261.403 566.161 258.852 565.903Q256.302 565.644 253.756 565.338Q251.21 565.033 248.671 564.682Q246.131 564.331 243.598 563.933Q241.065 563.536 238.54 563.092Q236.015 562.649 233.498 562.16C232.677 561.942 231.827 561.739 231.027 561.45C229.494 560.895 228.018 559.543 227.362 558.045C226.894 556.977 226.872 555.816 227.378 554.758C228.377 552.669 230.902 551.895 233.045 551.773C237.118 551.542 241.395 552.795 245.383 553.543Q250.029 554.388 254.713 554.986Q272.389 557.197 290.201 556.896Q296.851 556.826 303.489 556.432Q310.128 556.038 316.739 555.32Q323.35 554.603 329.918 553.563Q336.487 552.524 342.997 551.166Q349.506 549.807 355.942 548.133Q362.378 546.458 368.724 544.472Q375.071 542.486 381.313 540.192Q387.554 537.898 393.677 535.303C398.504 533.3 403.274 530.993 407.899 528.564C411.622 526.609 415.378 524.363 419.338 522.924L419.734 522.782Z"/>
      <path fill="currentColor" d="M560.864 283.306C563.244 283.587 564.437 284.266 566.137 285.913C567.399 292.221 566.481 299.719 566.009 306.112C563.875 335.06 558.059 362.793 547.495 389.857C536.793 417.275 522.997 439.928 505.142 463.182C501.523 467.895 495.97 475.961 490.528 478.345C489.611 478.349 488.679 478.345 487.825 477.972C486.519 477.4 485.14 476.368 484.685 474.963C484.019 472.907 485.491 470.642 486.595 468.992C488.992 465.408 492.088 462.226 494.905 458.972Q498.584 454.641 502.002 450.102Q510.198 439.269 517.273 427.673Q524.349 416.078 530.234 403.835Q532.417 399.238 534.425 394.562Q536.433 389.885 538.262 385.137Q540.091 380.388 541.739 375.573Q543.387 370.758 544.852 365.884Q546.316 361.011 547.595 356.085Q548.874 351.159 549.965 346.189Q551.057 341.218 551.959 336.21Q552.862 331.202 553.574 326.163Q554.891 317.077 555.546 307.92C555.902 303.235 555.153 289.21 557.011 285.86C557.858 284.332 559.246 283.731 560.864 283.306Z"/>
      <path fill="currentColor" d="M283.334 9.75366C307.392 9.60161 331.238 11.7436 354.595 17.7318C395.378 28.1877 429.699 45.1201 462.624 71.2853C466.896 74.6801 475.163 80.4062 477.717 85.0002C478.367 86.1686 478.654 87.4624 478.225 88.7583C477.791 90.0697 476.558 91.2948 475.33 91.8907C472.772 93.1319 470.321 91.6388 468.317 90.0575C465.477 87.8163 462.903 85.1435 460.187 82.7447C457.499 80.3708 454.582 78.1917 451.747 75.9925C431.261 60.0995 407.899 46.7195 383.566 37.6877C376.468 34.6674 368.934 32.5067 361.531 30.3746C314.727 16.8943 261.697 15.9501 214.868 30.0292C205.016 32.991 195.094 36.1608 185.573 40.0561C183.032 41.0961 180.484 42.1304 178.007 43.3202C174.418 45.0446 171.068 46.957 167.177 47.9137C165.741 47.5592 164.58 47.1974 163.425 46.244C162.39 45.3889 161.678 44.2954 161.65 42.917C161.622 41.5258 162.574 40.2056 163.52 39.2733C167.55 35.3008 174.968 33.168 180.125 31.0454Q186.232 28.4647 192.459 26.1868Q198.685 23.9089 205.016 21.9393Q211.347 19.9696 217.767 18.313Q224.187 16.6564 230.681 15.3168Q237.174 13.9772 243.726 12.9579Q250.277 11.9385 256.871 11.2419Q263.464 10.5452 270.084 10.1729Q276.704 9.80066 283.334 9.75366Z"/>
      <path fill="currentColor" d="M27.966 193.715C29.1923 193.721 30.2238 193.795 31.3559 194.321C33.3155 195.232 34.0331 196.929 33.9897 199.016C33.8942 203.603 29.6745 213.902 28.197 219.271Q25.681 228.67 23.8968 238.234C16.6731 275.287 17.5396 316.126 26.9108 352.699Q28.0582 357.337 29.3699 361.93Q30.6817 366.524 32.1562 371.068Q33.6307 375.613 35.266 380.101Q36.9014 384.59 38.6955 389.018Q40.4897 393.446 42.4404 397.807Q44.391 402.168 46.4957 406.457Q48.6005 410.746 50.8566 414.957Q53.1126 419.168 55.5173 423.297Q57.9219 427.425 60.472 431.465Q63.022 435.505 65.7144 439.452Q68.4067 443.399 71.2378 447.247Q74.069 451.096 77.0353 454.841Q80.0017 458.586 83.0996 462.223Q86.1974 465.861 89.4228 469.385Q92.6482 472.91 95.9971 476.318Q99.3459 479.726 102.814 483.012Q112.034 491.816 122.051 499.702Q132.067 507.588 142.789 514.485Q147.632 517.563 152.627 520.389C155.879 522.236 159.494 523.983 162.356 526.396C163.035 526.969 163.553 527.592 163.827 528.447C164.223 529.686 164.068 530.944 163.455 532.085C162.545 533.777 161.339 534.626 159.547 535.204C158.467 535.082 157.401 534.913 156.373 534.547C148.808 531.853 138.759 524.591 132.014 520.002Q128.166 517.418 124.407 514.708Q120.647 511.998 116.98 509.165Q113.312 506.331 109.741 503.377Q106.17 500.423 102.699 497.353Q99.2276 494.282 95.8606 491.097Q92.4936 487.912 89.2343 484.618Q85.9751 481.323 82.8272 477.922Q79.6793 474.52 76.6462 471.016Q73.6131 467.512 70.6982 463.91Q67.7833 460.307 64.9898 456.609Q62.1963 452.911 59.5273 449.123Q56.8583 445.334 54.3167 441.459Q51.7751 437.584 49.3638 433.626Q46.9525 429.669 44.6741 425.633Q42.3957 421.598 40.2527 417.489Q38.1098 413.38 36.1046 409.202Q34.9321 406.744 33.8076 404.264Q32.6831 401.783 31.607 399.282Q30.5309 396.78 29.5036 394.258Q28.4764 391.736 27.4983 389.194Q26.5203 386.653 25.5918 384.093Q24.6633 381.532 23.7848 378.955Q22.9063 376.377 22.0781 373.783Q21.2498 371.189 20.4721 368.579Q19.6945 365.969 18.9677 363.344Q18.2409 360.72 17.5653 358.082Q16.8896 355.444 16.2654 352.793Q15.6412 350.142 15.0686 347.48Q14.496 344.818 13.9752 342.145Q13.4545 339.472 12.9858 336.789Q12.5171 334.106 12.1007 331.415Q11.6842 328.724 11.3202 326.025Q10.9561 323.327 10.6446 320.621Q10.3331 317.916 10.0742 315.205Q9.81528 312.494 9.60913 309.779Q9.40298 307.063 9.24966 304.344Q9.09633 301.626 8.99588 298.904Q8.89543 296.183 8.84789 293.46Q8.80036 290.737 8.80576 288.014Q8.81116 285.291 8.86949 282.568Q8.92782 279.846 9.03906 277.125Q9.1503 274.404 9.31441 271.686Q9.47852 268.967 9.69543 266.253Q9.91234 263.538 10.182 260.828Q10.4516 258.118 10.7739 255.414Q11.0961 252.71 11.4709 250.013Q11.8457 247.316 12.2728 244.626Q12.6999 241.937 13.1792 239.256C15.4066 226.307 18.1386 213.425 22.5449 201.017C23.6574 197.884 24.8207 195.222 27.966 193.715Z"/>
      <path fill="currentColor" d="M283.322 40.8362Q283.639 40.8212 283.956 40.8122Q286.389 40.7714 288.823 40.7786Q291.257 40.7859 293.69 40.8412Q296.123 40.8966 298.554 41Q300.986 41.1034 303.415 41.2548Q305.844 41.4062 308.269 41.6056Q310.695 41.805 313.116 42.0523Q315.537 42.2996 317.952 42.5946Q320.368 42.8897 322.778 43.2324Q325.187 43.5751 327.589 43.9654Q329.991 44.3557 332.385 44.7934Q334.779 45.231 337.164 45.7159Q339.549 46.2008 341.924 46.7327Q344.299 47.2646 346.662 47.8433Q349.026 48.422 351.378 49.0473Q353.73 49.6726 356.069 50.3443Q358.408 51.016 360.734 51.7337Q363.059 52.4514 365.37 53.215Q367.681 53.9785 369.976 54.7876Q372.271 55.5967 374.55 56.4509Q376.829 57.3052 379.09 58.2043Q381.351 59.1034 383.595 60.047Q385.838 60.9906 388.062 61.9784Q390.286 62.9661 392.49 63.9976Q394.694 65.0291 396.878 66.104Q399.061 67.1788 401.223 68.2966Q403.384 69.4144 405.524 70.5747Q407.663 71.735 409.779 72.9373Q411.894 74.1396 413.986 75.3835Q416.078 76.6274 418.144 77.9123Q420.211 79.1973 422.252 80.5229Q424.293 81.8484 426.307 83.214Q428.321 84.5797 430.308 85.9848C438.951 92.0539 447.296 98.4935 454.984 105.749C462.192 112.552 469.325 119.643 475.758 127.181Q477.461 129.166 479.122 131.186Q480.782 133.206 482.4 135.261Q484.017 137.315 485.591 139.404Q487.165 141.492 488.694 143.614Q490.224 145.735 491.708 147.888Q493.192 150.041 494.63 152.225Q496.069 154.409 497.461 156.623Q498.852 158.837 500.197 161.079Q501.542 163.322 502.839 165.593Q504.136 167.864 505.385 170.161Q506.634 172.459 507.833 174.782Q509.033 177.106 510.184 179.454Q511.335 181.802 512.435 184.174Q513.536 186.546 514.586 188.941Q515.636 191.336 516.636 193.752Q517.635 196.169 518.584 198.606Q519.532 201.043 520.428 203.499Q521.325 205.956 522.169 208.431Q523.013 210.905 523.805 213.398Q524.597 215.89 525.336 218.398Q526.075 220.906 526.761 223.43Q527.447 225.953 528.079 228.49Q528.711 231.028 529.29 233.578Q529.869 236.128 530.393 238.69Q530.918 241.251 531.388 243.824Q531.858 246.396 532.274 248.978Q532.69 251.559 533.051 254.149Q533.412 256.739 533.719 259.336Q534.025 261.933 534.276 264.536Q534.528 267.138 534.724 269.746Q534.921 272.353 535.062 274.964Q535.203 277.576 535.289 280.189Q535.392 283.263 535.418 286.338Q535.445 289.413 535.395 292.488Q535.345 295.563 535.218 298.636Q535.092 301.709 534.889 304.777Q534.687 307.846 534.408 310.909Q534.129 313.971 533.774 317.026Q533.419 320.081 532.989 323.126Q532.558 326.171 532.052 329.205Q531.546 332.238 530.964 335.258Q530.383 338.278 529.727 341.283Q529.071 344.287 528.34 347.275Q527.61 350.262 526.805 353.23Q526 356.198 525.122 359.146Q524.244 362.093 523.293 365.018Q522.342 367.943 521.319 370.843Q520.296 373.743 519.201 376.617Q518.105 379.491 516.939 382.337Q515.773 385.182 514.537 387.998Q513.3 390.814 511.994 393.599Q510.688 396.383 509.313 399.134Q507.938 401.885 506.495 404.601Q505.053 407.317 503.543 409.997Q502.033 412.676 500.457 415.317Q498.881 417.958 497.24 420.559Q495.599 423.161 493.894 425.72Q492.189 428.28 490.421 430.796Q488.653 433.313 486.823 435.785Q484.992 438.256 483.102 440.682Q481.211 443.108 479.26 445.485Q477.309 447.863 475.3 450.192Q473.291 452.521 471.225 454.799Q469.158 457.077 467.036 459.303Q464.937 461.511 462.785 463.666Q460.632 465.821 458.427 467.923Q456.222 470.025 453.966 472.071Q451.71 474.118 449.404 476.108Q447.097 478.098 444.743 480.031Q442.389 481.964 439.987 483.838Q437.586 485.712 435.139 487.526Q432.692 489.341 430.201 491.094Q427.71 492.847 425.176 494.539Q422.643 496.23 420.068 497.859Q417.494 499.487 414.88 501.051Q412.266 502.616 409.614 504.115Q406.963 505.615 404.275 507.048Q401.587 508.482 398.864 509.849Q396.142 511.215 393.387 512.515Q390.631 513.814 387.845 515.045Q385.058 516.276 382.242 517.438Q379.426 518.599 376.582 519.691Q373.738 520.783 370.868 521.805Q367.998 522.826 365.104 523.777Q362.21 524.727 359.293 525.606Q356.376 526.485 353.438 527.291Q350.501 528.098 347.544 528.831Q344.587 529.565 341.613 530.226Q338.64 530.886 335.65 531.473Q332.661 532.061 329.658 532.574Q326.655 533.087 323.641 533.526Q320.626 533.965 317.602 534.329Q314.577 534.694 311.544 534.983Q308.512 535.273 305.473 535.488Q302.434 535.703 299.391 535.843Q296.348 535.982 293.302 536.047Q290.352 536.125 287.402 536.131Q284.451 536.138 281.501 536.074Q278.551 536.01 275.603 535.875Q272.656 535.74 269.712 535.534Q266.769 535.329 263.831 535.053Q260.893 534.777 257.963 534.43Q255.033 534.083 252.112 533.667Q249.191 533.25 246.28 532.763Q243.37 532.276 240.472 531.72Q237.575 531.164 234.691 530.538Q231.807 529.912 228.94 529.217Q226.072 528.523 223.222 527.759Q220.372 526.996 217.541 526.164Q214.71 525.333 211.899 524.433Q209.089 523.534 206.301 522.568Q203.513 521.601 200.749 520.568Q197.986 519.535 195.247 518.436Q192.509 517.337 189.798 516.173Q187.087 515.008 184.404 513.779Q181.722 512.55 179.07 511.257Q176.418 509.964 173.798 508.607Q171.177 507.251 168.59 505.832Q166.003 504.413 163.451 502.932Q160.899 501.452 158.383 499.911Q155.867 498.369 153.389 496.768Q150.911 495.167 148.472 493.506Q146.033 491.846 143.634 490.128Q141.236 488.409 138.879 486.634Q136.523 484.858 134.209 483.027Q131.896 481.195 129.627 479.309Q127.359 477.423 125.136 475.482Q122.913 473.542 120.738 471.549Q118.48 469.492 116.274 467.38Q114.068 465.268 111.915 463.102Q109.762 460.937 107.663 458.718Q105.564 456.5 103.521 454.23Q101.478 451.96 99.4914 449.641Q97.5049 447.321 95.5764 444.953Q93.6479 442.585 91.7786 440.17Q89.9093 437.755 88.1003 435.295Q86.2914 432.834 84.5439 430.33Q82.7963 427.825 81.1113 425.278Q79.4263 422.731 77.8048 420.143Q76.1834 417.556 74.6265 414.929Q73.0695 412.301 71.5781 409.636Q70.0867 406.972 68.6616 404.271Q67.2366 401.57 65.8788 398.834Q64.5211 396.099 63.2314 393.331Q61.9418 390.563 60.721 387.764Q59.5003 384.964 58.3491 382.136Q57.198 379.307 56.1173 376.451Q55.0365 373.595 54.0268 370.713Q53.017 367.831 52.0789 364.925Q51.1408 362.019 50.2748 359.091Q49.4089 356.162 48.6157 353.213Q47.8225 350.264 47.1026 347.297Q46.3826 344.329 45.7363 341.344Q45.09 338.36 44.5177 335.36Q43.9455 332.361 43.4476 329.348Q42.9498 326.335 42.5267 323.311Q42.1035 320.286 41.7554 317.253Q41.4072 314.219 41.1342 311.177Q40.8612 308.136 40.6636 305.089Q40.466 302.041 40.3438 298.99Q40.2054 295.922 40.1434 292.852Q40.0814 289.782 40.096 286.711Q40.1105 283.641 40.2015 280.571Q40.2925 277.502 40.4599 274.436Q40.6273 271.369 40.871 268.308Q41.1148 265.247 41.4347 262.193Q41.7546 259.139 42.1504 256.094Q42.5463 253.049 43.0179 250.014Q43.4895 246.98 44.0365 243.958Q44.5835 240.937 45.2056 237.929Q45.8277 234.922 46.5245 231.932Q47.2213 228.941 47.9924 225.969Q48.7635 222.996 49.6083 220.044Q50.4532 217.091 51.3714 214.161Q52.2895 211.231 53.2804 208.324Q54.2712 205.418 55.3341 202.537Q56.3971 199.656 57.5314 196.802Q58.6658 193.948 59.8709 191.124Q61.0759 188.299 62.351 185.506Q63.6261 182.712 64.9703 179.951Q66.3146 177.19 67.7271 174.463Q69.1397 171.736 70.6198 169.046Q72.0999 166.355 73.6465 163.702Q75.1931 161.049 76.8053 158.435Q78.4176 155.822 80.0944 153.249Q81.7712 150.676 83.5116 148.146Q85.252 145.616 87.0548 143.13Q88.8577 140.643 90.7219 138.203Q92.5861 135.763 94.5106 133.369Q96.435 130.976 98.4184 128.632Q100.402 126.287 102.443 123.992Q104.484 121.698 106.582 119.455Q113.614 111.908 121.274 104.998Q128.933 98.088 137.162 91.8669C180.174 58.8051 229.362 42.8392 283.322 40.8362ZM282.079 51.2919C271.933 51.7411 261.692 52.4716 251.645 54.0073Q249.139 54.3869 246.642 54.8201Q244.145 55.2534 241.657 55.7401Q239.17 56.2269 236.693 56.7668Q234.217 57.3068 231.753 57.8998Q229.289 58.4928 226.838 59.1385Q224.387 59.7842 221.95 60.4823Q219.514 61.1804 217.093 61.9306Q214.672 62.6809 212.268 63.4829Q209.863 64.2849 207.477 65.1383Q205.09 65.9917 202.723 66.896Q200.355 67.8004 198.007 68.7554Q195.66 69.7104 193.333 70.7155Q191.006 71.7206 188.702 72.7754Q186.397 73.8302 184.116 74.9342Q181.834 76.0382 179.577 77.1909Q177.32 78.3436 175.088 79.5444Q172.856 80.7452 170.651 81.9937Q168.445 83.2421 166.267 84.5376Q164.088 85.8331 161.938 87.175Q159.788 88.5169 157.667 89.9046Q155.547 91.2923 153.456 92.7252Q151.366 94.1581 149.306 95.6355Q147.247 97.1129 145.22 98.6341Q143.193 100.155 141.199 101.72Q139.205 103.284 137.245 104.891Q135.285 106.498 133.36 108.146Q131.435 109.795 129.546 111.484Q127.657 113.173 125.805 114.903Q123.952 116.632 122.137 118.401Q120.322 120.17 118.546 121.978Q116.769 123.785 115.032 125.63Q113.294 127.475 111.597 129.357Q109.654 131.508 107.765 133.707Q105.875 135.905 104.039 138.149Q102.204 140.392 100.424 142.68Q98.6441 144.968 96.9205 147.299Q95.1969 149.63 93.5308 152.002Q91.8647 154.374 90.257 156.786Q88.6493 159.198 87.101 161.649Q85.5528 164.099 84.0648 166.587Q82.5769 169.075 81.1502 171.598Q79.7235 174.121 78.3589 176.679Q76.9943 179.236 75.6925 181.826Q74.3908 184.416 73.1527 187.037Q71.9146 189.658 70.741 192.308Q69.5673 194.959 68.4588 197.637Q67.3502 200.315 66.3074 203.02Q65.2646 205.725 64.2882 208.454Q63.3118 211.183 62.4024 213.935Q61.493 216.688 60.6511 219.461Q59.8092 222.235 59.0353 225.028Q58.2614 227.822 57.556 230.633Q56.8506 233.445 56.2141 236.273Q55.5775 239.1 55.0103 241.943Q54.4431 244.786 53.9455 247.641Q53.4479 250.497 53.0202 253.363Q52.5925 256.23 52.235 259.107Q51.8774 261.983 51.5903 264.868Q51.3032 267.752 51.0866 270.642Q50.87 273.533 50.7241 276.428Q50.5782 279.323 50.5031 282.22Q50.428 285.118 50.4237 288.016Q50.4194 290.915 50.4859 293.813Q50.5524 296.711 50.6897 299.606Q50.8243 302.502 51.0299 305.394Q51.2354 308.285 51.5119 311.171Q51.7883 314.057 52.1355 316.935Q52.4827 319.814 52.9003 322.682Q53.318 325.551 53.8059 328.409Q54.2938 331.267 54.8517 334.111Q55.4095 336.956 56.037 339.787Q56.6645 342.617 57.3612 345.431Q58.058 348.245 58.8235 351.041Q59.5891 353.838 60.423 356.614Q61.2569 359.391 62.1587 362.146Q63.0605 364.901 64.0296 367.634Q64.9987 370.366 66.0345 373.074Q67.0703 375.782 68.1723 378.463Q69.2742 381.145 70.4416 383.798Q71.609 386.452 72.8411 389.076Q74.0733 391.701 75.3694 394.294Q76.6656 396.887 78.0249 399.448Q79.3843 402.009 80.8061 404.535Q82.2279 407.062 83.7112 409.553Q85.1945 412.044 86.7385 414.498Q88.2825 416.952 89.8862 419.367Q91.49 421.782 93.1525 424.157Q94.8149 426.533 96.5352 428.866Q98.2555 431.2 100.032 433.491Q101.809 435.782 103.642 438.028Q105.475 440.275 107.362 442.476Q109.249 444.677 111.19 446.831Q113.13 448.985 115.123 451.091Q117.116 453.197 119.16 455.253Q121.204 457.309 123.298 459.315Q125.392 461.32 127.534 463.274Q129.19 464.802 130.875 466.298Q132.56 467.794 134.273 469.258Q135.986 470.721 137.727 472.152Q139.468 473.583 141.236 474.979Q143.004 476.376 144.799 477.739Q146.593 479.102 148.413 480.43Q150.233 481.759 152.079 483.052Q153.924 484.345 155.794 485.602Q157.663 486.86 159.557 488.082Q161.45 489.303 163.367 490.488Q165.283 491.673 167.222 492.822Q169.161 493.97 171.122 495.081Q173.082 496.192 175.064 497.265Q177.045 498.338 179.046 499.373Q181.048 500.408 183.069 501.405Q185.09 502.401 187.13 503.359Q189.17 504.316 191.227 505.235Q193.285 506.153 195.36 507.032Q197.435 507.911 199.526 508.75Q201.618 509.589 203.725 510.388Q205.832 511.187 207.954 511.945Q210.076 512.703 212.212 513.421Q214.348 514.138 216.497 514.815Q218.647 515.492 220.809 516.127Q222.971 516.762 225.145 517.356Q227.318 517.95 229.503 518.502Q231.688 519.054 233.883 519.564Q236.078 520.074 238.282 520.542Q240.486 521.01 242.699 521.436Q244.912 521.862 247.133 522.245Q249.353 522.628 251.581 522.969Q253.808 523.31 256.042 523.608C268.832 525.262 281.552 525.685 294.433 525.521Q297.347 525.446 300.259 525.3Q303.17 525.153 306.077 524.934Q308.984 524.716 311.885 524.425Q314.785 524.135 317.678 523.773Q320.57 523.411 323.453 522.977Q326.336 522.544 329.207 522.039Q332.078 521.535 334.936 520.959Q337.793 520.384 340.636 519.738Q343.479 519.092 346.304 518.376Q349.13 517.66 351.937 516.874Q354.745 516.089 357.532 515.234Q360.318 514.379 363.083 513.455Q365.848 512.532 368.59 511.54Q371.331 510.549 374.047 509.49Q376.763 508.431 379.451 507.305Q382.14 506.179 384.8 504.987Q387.461 503.795 390.09 502.538Q392.72 501.28 395.318 499.958Q397.916 498.636 400.481 497.25Q403.045 495.864 405.575 494.415Q408.104 492.967 410.597 491.456Q413.09 489.945 415.544 488.372Q417.999 486.8 420.414 485.168Q422.829 483.536 425.203 481.844Q427.577 480.152 429.908 478.403Q432.24 476.653 434.527 474.846Q436.814 473.039 439.056 471.176Q441.298 469.313 443.493 467.396Q445.689 465.478 447.836 463.507Q449.983 461.535 452.08 459.511Q454.178 457.487 456.225 455.412Q458.272 453.337 460.267 451.212Q462.244 449.13 464.169 447.001Q466.095 444.871 467.968 442.696Q469.84 440.52 471.66 438.299Q473.479 436.078 475.243 433.814Q477.008 431.549 478.717 429.242Q480.425 426.935 482.077 424.588Q483.729 422.24 485.323 419.852Q486.917 417.465 488.452 415.039Q489.988 412.613 491.463 410.151Q492.939 407.689 494.354 405.191Q495.769 402.693 497.123 400.162Q498.477 397.63 499.768 395.067Q501.06 392.503 502.289 389.908Q503.517 387.314 504.682 384.69Q505.847 382.066 506.948 379.415Q508.048 376.764 509.084 374.086Q510.119 371.409 511.089 368.707Q512.059 366.005 512.963 363.281Q513.866 360.556 514.703 357.81Q515.54 355.064 516.309 352.299Q517.079 349.533 517.781 346.75Q518.483 343.966 519.117 341.166Q519.75 338.366 520.315 335.552Q520.881 332.738 521.377 329.91Q521.873 327.083 522.3 324.244Q522.728 321.406 523.085 318.557Q523.443 315.709 523.731 312.853Q524.02 309.997 524.238 307.135Q524.456 304.273 524.605 301.406Q524.753 298.539 524.832 295.67Q524.91 292.8 524.918 289.929Q524.927 287.059 524.865 284.189C523.213 220.404 498.263 161.298 451.749 117.219Q449.652 115.203 447.507 113.24Q445.362 111.276 443.168 109.366Q440.975 107.455 438.736 105.599Q436.496 103.744 434.212 101.943Q431.927 100.143 429.599 98.3998Q427.271 96.6564 424.901 94.9708Q422.531 93.2851 420.12 91.6583Q417.709 90.0314 415.258 88.4643Q412.808 86.8973 410.32 85.391Q407.832 83.8846 405.307 82.4399Q402.783 80.9953 400.224 79.6131Q397.665 78.2309 395.072 76.9121Q392.48 75.5933 389.856 74.3387Q387.232 73.084 384.577 71.8943Q381.923 70.7045 379.241 69.5804Q376.558 68.4563 373.848 67.3985Q371.139 66.3408 368.404 65.3499Q365.67 64.3591 362.911 63.4358Q360.153 62.5125 357.373 61.6574Q354.593 60.8022 351.793 60.0157Q348.992 59.2291 346.174 58.5117Q343.355 57.7943 340.519 57.1464Q337.683 56.4985 334.833 55.9205Q331.982 55.3426 329.118 54.8349Q326.254 54.3272 323.378 53.8901Q320.503 53.453 317.617 53.0868Q314.732 52.7206 311.838 52.4254Q308.944 52.1303 306.044 51.9064Q303.144 51.6825 300.239 51.5299Q297.335 51.3774 294.427 51.2964Q291.519 51.2154 288.611 51.2059Q285.702 51.1964 282.794 51.2584C282.556 51.2647 282.317 51.2747 282.079 51.2919Z"/>
      <path fill="currentColor" d="M248.362 487.803C254.604 487.403 260.89 488.49 267.109 488.882C275.051 489.384 283.03 489.381 290.964 490.039C301.005 490.872 315.611 492.259 322.386 500.595C323.523 501.995 324.555 503.849 324.256 505.72C324.035 507.098 323.136 508.154 322.025 508.939C317.622 512.048 313.163 505.938 309.418 504.234C306.158 502.75 302.46 502.205 298.954 501.605C288.959 500.148 278.881 500.08 268.818 499.461C261.077 498.985 253.218 497.553 245.469 498.585C239.281 499.409 233.66 502.095 227.618 503.403C225.983 503.757 224.153 504.16 222.674 503.128C221.502 502.31 220.608 500.698 220.376 499.302C220.172 498.07 220.534 496.859 221.313 495.891C225.436 490.77 241.61 488.359 248.362 487.803Z"/>
      <path fill="currentColor" d="M422.685 384.233C424.889 384.154 426.787 384.38 428.624 385.709C431.062 387.473 432.137 390.431 432.511 393.313C433.891 403.934 427.113 425.663 420.605 434.002C417.356 438.164 412.789 440.119 407.665 440.714C406.072 440.511 404.555 440.238 403.117 439.489C400.639 438.197 398.936 435.965 398.144 433.304C395.307 423.772 402.612 408.835 407.298 400.439C410.818 394.131 415.29 386.338 422.685 384.233ZM421.651 396.839C417.896 403.176 406.55 423.133 408.104 430.073L408.462 430.495C416.65 424.789 419.822 411.745 421.466 402.389C421.75 400.773 422.19 398.744 421.921 397.112L421.651 396.839Z"/>
      <path fill="currentColor" d="M176.611 103.769C177.307 103.744 178.047 103.851 178.711 104.065C180.389 104.607 181.639 106.191 182.413 107.701C186.32 115.322 185.841 129.159 183.172 137.114Q182.991 137.653 182.791 138.186C177.146 153.199 160.783 160.669 146.397 164.927C140.234 166.752 133.695 168.001 128.132 171.359C120.756 175.811 114.132 183.465 108.571 189.988C104.821 194.386 101.348 200.454 96.1003 203.081C95.0643 203.232 93.9675 203.114 93.0377 202.601C91.7647 201.898 90.6971 200.578 90.3668 199.154C90.0379 197.738 90.3589 196.205 91.0222 194.933C93.8332 189.544 110.378 172.329 115.779 167.68C118.64 165.216 121.662 162.907 124.99 161.107C129.748 158.535 134.934 157.399 140.096 155.957C151.122 152.878 164.646 148.683 171.154 138.488C177.177 129.052 174.429 118.404 172.189 108.306C173.257 105.891 174.157 104.824 176.611 103.769Z"/>
      <path fill="currentColor" d="M73.9934 247.274C94.3419 253.609 94.019 272.749 94.4413 290.557C94.5871 296.706 94.9984 302.747 95.7373 308.856C96.2388 313.003 96.9139 318.123 99.048 321.785C101.99 326.834 109.27 329.619 113.94 332.883C118.103 335.793 122.175 338.976 125.637 342.703C129.651 347.023 132.911 352.072 134.819 357.67C138.611 368.799 135.467 375.909 132.112 386.493Q129.993 393.068 129.181 399.928Q128.743 403.616 128.767 407.33Q128.792 411.044 129.279 414.726C129.689 417.999 130.529 421.652 130.305 424.946C130.197 426.523 129.189 427.236 128.109 428.221C126.696 428.87 124.878 429.332 123.375 428.723C118.031 426.558 118.404 412.367 118.443 407.226Q118.494 402.393 119.072 397.594Q119.65 392.795 120.749 388.088C122.701 379.754 127.457 371.826 125.501 363.059C123.296 353.179 114.383 345.722 106.297 340.454C99.9362 336.309 93.0386 332.877 89.3931 325.833C83.8339 315.092 84.0893 297.379 83.8088 285.196C83.6623 278.836 83.9188 271.379 81.0396 265.539C79.2125 261.833 76.2299 259.263 72.3552 257.87C72.7358 254.33 73.4171 250.789 73.9934 247.274Z"/>
      <path fill="currentColor" d="M263.869 67.3142C264.683 67.2186 265.561 67.1817 266.377 67.2731Q266.623 67.2995 266.866 67.3502Q267.108 67.4009 267.344 67.4754Q267.581 67.5499 267.808 67.6475Q268.036 67.7451 268.253 67.8648Q268.47 67.9845 268.674 68.1251Q268.877 68.2658 269.066 68.4259Q269.255 68.5861 269.427 68.7642Q269.599 68.9424 269.753 69.1367C271.275 71.0788 271.098 73.975 270.716 76.2755C269.677 82.5343 265.914 88.6454 259.669 90.735C256.137 91.9167 252.353 92.2549 248.766 93.2588C244.278 94.5147 240.053 96.5067 235.999 98.7883C230.79 101.72 225.973 105.38 221.516 109.356C219.398 111.246 217.429 113.362 215.124 115.023C228.514 118.364 248.932 103.473 260.67 97.6591Q264.996 95.5528 269.605 94.1701C278.068 91.636 286.939 90.5187 295.654 89.2032C300.473 88.4757 305.747 88.0193 310.314 86.2739C316.614 83.8656 326.202 73.2894 331.911 73.3653C333.398 73.3851 334.828 73.9641 335.849 75.055C336.711 75.9747 337.176 77.1921 337.071 78.4545C336.886 80.6779 335.387 82.0274 333.794 83.3591C327.573 87.6959 321.455 93.1184 314.358 95.9265C309.28 97.9355 303.716 98.5593 298.354 99.3753C289.713 100.69 280.885 101.78 272.495 104.314C265.596 106.399 259.918 110.142 253.693 113.609C244.326 118.824 228.34 127.706 217.454 126.103C213.577 125.532 209.595 123.744 207.253 120.493Q206.967 120.094 206.724 119.667Q206.48 119.24 206.283 118.79Q206.085 118.34 205.935 117.872Q205.784 117.405 205.684 116.924Q205.583 116.443 205.532 115.954Q205.481 115.466 205.481 114.974Q205.482 114.483 205.533 113.994Q205.584 113.506 205.685 113.025C207.541 104.094 226.426 91.763 234.531 87.5268C237.355 86.0509 240.343 84.9445 243.345 83.8879C246.856 82.652 255.062 81.7977 257.496 80.0728C259.833 78.4162 259.931 74.9668 260.498 72.4279C261.043 69.9867 261.737 68.6614 263.869 67.3142Z"/>
      <path fill="currentColor" d="M351.63 72.9471C353.107 73.0361 354.575 73.3893 355.805 74.2524C361.144 77.9974 351.837 87.5304 351.105 93.3667C350.563 97.6869 352.488 101.907 353.17 106.116C354.149 112.154 353.989 120.192 350.141 125.289C348.714 127.179 345.818 129.639 343.349 129.956C338.991 130.516 334.561 130.184 330.178 130.326C318.169 130.714 304.695 132.737 294.476 139.37C294.424 146.514 295.278 155.332 292.242 161.944C290.992 164.665 288.919 166.816 286.503 168.538C282.515 171.381 277.685 173.172 273.374 175.507C260.714 182.366 247.445 190.833 238.085 201.892C253.741 202.177 268.95 199.502 284.508 198.477C293.846 197.861 303.234 198.094 312.58 198.388C323.905 198.743 335.586 199.063 346.661 201.675C351.681 202.86 356.845 204.67 361.124 207.609Q361.643 207.965 362.143 208.346Q362.643 208.727 363.124 209.133Q363.605 209.538 364.065 209.967Q364.525 210.396 364.963 210.847Q365.401 211.298 365.817 211.771Q366.232 212.243 366.623 212.736Q367.015 213.228 367.381 213.739Q367.748 214.25 368.088 214.779Q368.429 215.308 368.743 215.853Q369.057 216.398 369.343 216.958Q369.63 217.518 369.888 218.091Q370.146 218.664 370.376 219.25Q370.606 219.835 370.806 220.432Q371.006 221.028 371.177 221.633Q371.347 222.239 371.487 222.852Q371.627 223.465 371.737 224.084C372.568 228.628 371.919 233.691 369.184 237.503C361.291 248.504 344.295 243.877 332.941 244.252C324.869 244.518 317.836 246.708 309.754 244.346C299.057 241.219 290.244 233.16 279.347 230.955C269.679 228.998 258.968 230.202 249.334 231.951C235.149 234.526 220.48 239.816 211.993 252.186C202.065 266.657 194.918 293.158 198.187 310.598C198.658 313.11 199.288 315.924 201.097 317.826C204.029 320.909 208.781 322.769 212.516 324.666C225.417 331.219 238.892 338.093 253.448 339.913C265.056 341.365 276.372 334.399 287.045 341.823C291.027 344.594 293.898 348.674 295.642 353.166C299.36 362.737 295.999 370.314 298.351 377.986C301.13 387.054 310.292 397.273 310.781 406.502C311.246 415.262 304.992 424.224 306.812 432.846C308.266 439.732 320.59 460.4 326.492 463.981Q326.968 464.268 327.471 464.506Q327.973 464.745 328.497 464.933Q329.02 465.12 329.56 465.255Q330.1 465.39 330.65 465.471Q331.2 465.552 331.756 465.579Q332.311 465.605 332.867 465.576Q333.422 465.547 333.972 465.464Q334.522 465.38 335.061 465.243C348.2 461.829 367.644 437.125 375.637 426.125C378.373 422.36 381.872 418.497 383.184 413.962C384.279 410.175 384.422 406.026 384.631 402.11C385.172 391.94 385.057 380.803 389.498 371.434C394.833 360.181 403.513 350.864 411.004 341.054C415.643 334.977 419.678 328.535 423.534 321.943C420.159 322.463 416.326 322.604 412.926 322.344C407.629 321.94 403.541 319.563 400.11 315.572C392.116 306.276 372.406 270.249 373.593 258.096C373.815 255.828 374.695 253.939 376.523 252.55C388.522 243.435 405.601 276.618 417.558 277.963C419.808 278.216 421.854 277.35 423.575 275.952C428.098 272.278 437.497 261.451 437.851 255.383C438.302 247.641 418.81 251.142 413.342 244.332C412.002 242.664 411.491 240.425 411.778 238.32C412.128 235.761 413.973 233.626 415.968 232.121C424.271 225.852 438.206 225.662 448.018 227.022C466.31 229.559 471.485 238.141 481.259 252.006C483.985 255.874 487.05 259.467 489.912 263.23C489.224 254.515 489.394 237.177 492.481 229.44C493.795 226.148 496.057 222.743 499.481 221.404C501.15 220.752 503.015 220.697 504.654 221.471C505.915 222.067 506.914 223.242 507.339 224.568C507.777 225.932 507.462 227.213 506.823 228.445C506.779 228.531 506.732 228.616 506.686 228.702C504.946 230.35 503.29 231.48 502.116 233.676C496.827 243.572 503.763 262.92 497.562 271.83C496.398 273.504 494.645 274.732 492.617 275.077C480.607 277.122 469.127 248.348 459.32 241.796C449.534 235.258 436.758 236.393 425.87 238.667C431.455 239.437 437.807 239.693 442.497 243.164C445.576 245.444 447.82 248.697 448.337 252.549C449.383 260.333 444.161 268.331 439.556 274.099C434.67 280.22 428.259 287.605 419.923 288.444C409.336 289.51 401.265 280.174 394.544 273.38C391.343 270.144 388.167 267.009 384.63 264.135C386.719 268.35 388.353 272.796 390.253 277.1C394.709 287.194 403.1 305.251 411.755 311.973C417.401 312.092 423.569 310.466 429.091 311.553C430.98 311.925 432.878 312.743 433.926 314.442C435.557 317.089 434.911 321.006 433.959 323.802C430.118 335.084 416.047 351.16 408.441 361.029C404.408 366.263 400.064 371.829 397.91 378.138C394.1 389.296 396.063 403.389 393.614 415.272C392.121 422.515 388.598 425.475 384.534 431.249C374.258 445.85 362.076 461.218 346.905 471.041C341.269 474.691 334.358 477.175 327.598 475.653C319.457 473.821 313.516 467.076 309.256 460.296C306.917 456.574 304.835 452.658 302.682 448.825C300.876 445.609 298.955 442.407 297.762 438.9C294.261 428.6 298.3 416.738 300.617 406.555C296.445 396.633 288.706 387.788 287.525 376.805C287.18 373.602 287.457 370.275 287.491 367.057C287.548 361.671 286.437 356.023 282.504 352.069C275.94 345.468 264.665 350.636 256.548 350.628C239.575 350.609 223.12 341.897 208.422 334.39C203.483 331.868 197.566 329.548 193.649 325.521C187.801 319.51 187.372 309.841 187.396 301.95C187.46 281.599 194.053 253.9 208.809 239.352C225.462 222.935 264.747 215.037 287.096 222.072C296.954 225.176 304.716 232.519 315.062 234.676C321.378 235.993 327.766 233.665 334.08 233.566C339.288 233.483 344.476 234.43 349.685 234.448C353.102 234.459 357.56 234.284 360.063 231.642C361.142 230.504 361.742 229.027 361.694 227.456C361.583 223.828 359.39 219.893 356.765 217.5C353.438 214.469 348.729 212.847 344.437 211.794C335.773 209.671 326.701 209.44 317.831 208.987C308.96 208.533 299.926 208.034 291.049 208.55C276.411 209.402 261.845 212.005 247.205 212.567C241.768 212.776 234.836 212.938 230.654 208.86C228.855 207.106 227.971 204.733 227.954 202.238C227.872 189.741 257.369 172.514 267.22 167.03C271.643 164.568 277.744 162.795 281.31 159.155C284.598 155.8 283.887 150.088 283.853 145.76C283.811 140.308 283.968 135.443 288.106 131.321C298.895 120.574 327.247 119.835 341.984 119.717C342.649 116.397 343.208 113.169 342.933 109.771C342.751 107.524 342.173 105.305 341.709 103.104C340.354 96.6645 340.37 91.779 342.535 85.5005C344.23 80.582 346.762 75.3483 351.63 72.9471Z"/>
    </symbol>

    <symbol id="arrow-back-outline" viewBox="0 0 512 512">
      <path fill="none" stroke="currentColor" stroke-linecap="round" stroke-linejoin="round" stroke-width="48" d="M244 400L100 256l144-144M120 256h292"/>
    </symbol>
  </defs>
</svg>
